<?xml version="1.0" encoding="UTF-8" standalone="no"?>
<svg
   xmlns:dc="http://purl.org/dc/elements/1.1/"
   xmlns:cc="http://creativecommons.org/ns#"
   xmlns:rdf="http://www.w3.org/1999/02/22-rdf-syntax-ns#"
   xmlns:svg="http://www.w3.org/2000/svg"
   xmlns="http://www.w3.org/2000/svg"
   xml:space="preserve"
   style="enable-background:new 0 0 612 612;"
   viewBox="0 0 612 612"
   height="612px"
   width="612px"
   y="0px"
   x="0px"
   id="Capa_1"
   version="1.1"><metadata
   id="metadata59"><rdf:RDF><cc:Work
       rdf:about=""><dc:format>image/svg+xml</dc:format><dc:type
         rdf:resource="http://purl.org/dc/dcmitype/StillImage" /><dc:title></dc:title></cc:Work></rdf:RDF></metadata><defs
   id="defs57" />
<g
   style="fill:#666666"
   id="g22">
	<g
   style="fill:#666666"
   id="g20">
		<path
   style="fill:#666666"
   id="path2"
   d="M153,114.75h1.592c15.845,0,28.688-12.842,28.688-28.688V76.5V28.688C183.28,12.842,170.437,0,154.592,0H153    c-15.845,0-28.688,12.842-28.688,28.688V76.5v9.562C124.312,101.908,137.155,114.75,153,114.75z" />
		<path
   style="fill:#666666"
   id="path4"
   d="M449.438,114.75h1.592c15.846,0,28.688-12.842,28.688-28.688V76.5V28.688C479.717,12.842,466.875,0,451.029,0h-1.592    c-15.845,0-28.688,12.842-28.688,28.688V76.5v9.562C420.75,101.908,433.593,114.75,449.438,114.75z" />
		<path
   style="fill:#666666"
   id="path6"
   d="M535.5,76.5h-27.096v9.562c0,31.638-25.737,57.375-57.375,57.375h-1.592c-31.638,0-57.375-25.737-57.375-57.375V76.5    H211.967v9.562c0,31.638-25.738,57.375-57.375,57.375H153c-31.638,0-57.375-25.737-57.375-57.375V76.5H76.5    C34.253,76.5,0,110.753,0,153v382.5C0,577.747,34.253,612,76.5,612h459c42.247,0,76.5-34.253,76.5-76.5V153    C612,110.753,577.747,76.5,535.5,76.5z M573.75,535.5c0,21.104-17.146,38.25-38.25,38.25h-459c-21.085,0-38.25-17.146-38.25-38.25    v-306h535.5V535.5z" />
		<circle
   style="fill:#666666"
   id="circle8"
   r="47.019"
   cy="325.125"
   cx="153" />
		<circle
   style="fill:#666666"
   id="circle10"
   r="47.019"
   cy="325.125"
   cx="306" />
		<circle
   style="fill:#666666"
   id="circle12"
   r="47.019"
   cy="325.125"
   cx="459" />
		<circle
   style="fill:#666666"
   id="circle14"
   r="47.019"
   cy="478.125"
   cx="153" />
		<circle
   style="fill:#666666"
   id="circle16"
   r="47.019"
   cy="478.125"
   cx="306" />
		<circle
   style="fill:#666666"
   id="circle18"
   r="47.019"
   cy="478.125"
   cx="459" />
	</g>
</g>
<g
   id="g24">
</g>
<g
   id="g26">
</g>
<g
   id="g28">
</g>
<g
   id="g30">
</g>
<g
   id="g32">
</g>
<g
   id="g34">
</g>
<g
   id="g36">
</g>
<g
   id="g38">
</g>
<g
   id="g40">
</g>
<g
   id="g42">
</g>
<g
   id="g44">
</g>
<g
   id="g46">
</g>
<g
   id="g48">
</g>
<g
   id="g50">
</g>
<g
   id="g52">
</g>
</svg>